<?xml version="1.0" encoding="UTF-8" standalone="no"?> <svg width="512" height="512" viewBox="0 0 512 512" fill="none" xmlns="http://www.w3.org/2000/svg">
<path fill-rule="evenodd" clip-rule="evenodd" d="M88 64V448H336V272H217.69L266.698 316.107C273.266 322.019 273.798 332.135 267.887 338.704C261.976 345.272 251.859 345.804 245.291 339.893L171.898 273.839C161.305 264.305 161.305 247.695 171.898 238.161L245.291 172.107C251.859 166.196 261.976 166.729 267.887 173.297C273.798 179.865 273.266 189.981 266.698 195.893L217.69 240H336V64H88ZM368 456V272H440C448.837 272 456 264.837 456 256C456 247.163 448.837 240 440 240H368V56C368 42.7452 357.255 32 344 32H80C66.7452 32 56 42.7452 56 56V456C56 469.255 66.7452 480 80 480H344C357.255 480 368 469.255 368 456Z" fill="black"/>
</svg>
