<?xml version="1.0" encoding="iso-8859-1"?>
<!-- Generator: Adobe Illustrator 16.0.0, SVG Export Plug-In . SVG Version: 6.00 Build 0)  -->
<!DOCTYPE svg PUBLIC "-//W3C//DTD SVG 1.1//EN" "http://www.w3.org/Graphics/SVG/1.1/DTD/svg11.dtd">
<svg version="1.1" xmlns="http://www.w3.org/2000/svg" xmlns:xlink="http://www.w3.org/1999/xlink" x="0px" y="0px" width="512px"
	 height="512px" viewBox="0 0 512 512" style="enable-background:new 0 0 512 512;" xml:space="preserve">
<g id="_x31_60_x2C__Document_x2C__Error_x2C__File_x2C__Alert">
	<g>
		<path style="fill:#FFDA2D;" d="M444.221,414.76L372.99,486h-89.881c-12.489,0-20.289-13.52-14.049-24.33
			c19.537-33.842,70.252-121.688,87.069-150.82c6.25-10.81,21.86-10.81,28.101,0C446.768,419.172,443.32,413.202,444.221,414.76z"/>
		<path style="fill:#00467D;" d="M380.41,433.91c2.619,2.62,4.24,6.24,4.24,10.24c0,3.989-1.621,7.609-4.24,10.229
			c-2.62,2.62-6.23,4.24-10.23,4.24c-7.99,0-14.47-6.48-14.47-14.47c0-3.99,1.62-7.61,4.24-10.24c2.62-2.62,6.229-4.24,10.229-4.24
			S377.79,431.29,380.41,433.91z"/>
		<path style="fill:#00467D;" d="M384.65,350.08v50.65c0,7.989-6.48,14.47-14.471,14.47s-14.47-6.48-14.47-14.47v-50.65
			c0-7.99,6.479-14.47,14.47-14.47c4,0,7.61,1.62,10.23,4.239C383.029,342.47,384.65,346.08,384.65,350.08z"/>
		<polygon style="fill:#FDBF00;" points="444.221,414.76 459.2,440.72 413.92,486 372.99,486 		"/>
		<path style="fill:#FFDA2D;" d="M471.3,461.67c6.25,10.811-1.56,24.33-14.05,24.33h-43.33l45.28-45.28L471.3,461.67z"/>
		<circle style="fill:#928BFF;" cx="453.5" cy="131" r="30"/>
		<path style="fill:#928BFF;" d="M43.5,331c8.28,0,15,6.72,15,15s-6.72,15-15,15c-8.28,0-15-6.72-15-15S35.22,331,43.5,331z"/>
		<path style="fill:#D5E8FE;" d="M328.5,26c18.55,18.55,41.45,41.45,60,60h-60V26z"/>
		<path style="fill:#EDF5FF;" d="M388.5,318.25l-4.27-7.4c-6.24-10.81-21.851-10.81-28.101,0L283.88,436H88.5
			c0-10.589,0-214.683,0-225.27l24.6-24.6V271l55-71.86v72.23l62.5-77.5v78.31l58.75-75V271l51.871-70v70.13l47.279-47.27
			C388.5,235.835,388.5,306.563,388.5,318.25z"/>
		<polygon style="fill:#EDF5FF;" points="388.5,86 388.5,188.5 366.221,210.78 366.221,126 314.35,195.91 314.35,126 255.6,199.73 
			255.6,126 193.1,200.54 193.1,126 138.1,197.77 138.1,125.78 88.5,175.38 88.5,26 328.5,26 328.5,86 		"/>
		<circle cx="471" cy="358.5" r="7.5"/>
		<circle cx="431" cy="253.5" r="7.5"/>
		<circle cx="401" cy="48.5" r="7.5"/>
		<circle cx="116" cy="473.5" r="7.5"/>
		<circle cx="56" cy="278.5" r="7.5"/>
		<circle cx="36" cy="93.5" r="7.5"/>
		<path d="M388.5,91h-60c-2.762,0-5-2.239-5-5V26c0-2.761,2.238-5,5-5s5,2.239,5,5v55h55c2.762,0,5,2.239,5,5S391.262,91,388.5,91z"
			/>
		<path d="M370.18,420.2c-10.735,0-19.47-8.734-19.47-19.47v-50.65c0-10.735,8.734-19.47,19.47-19.47
			c5.197,0,10.086,2.025,13.766,5.703c3.679,3.68,5.705,8.568,5.705,13.767v50.65C389.65,411.466,380.916,420.2,370.18,420.2z
			 M370.18,340.61c-5.221,0-9.47,4.248-9.47,9.47v50.65c0,5.222,4.249,9.47,9.47,9.47c5.223,0,9.471-4.248,9.471-9.47v-50.65
			c0-2.527-0.986-4.905-2.775-6.695C375.085,341.596,372.707,340.61,370.18,340.61z"/>
		<path d="M370.18,463.62c-10.735,0-19.47-8.734-19.47-19.47c0-5.191,2.023-10.081,5.698-13.77
			c3.685-3.685,8.573-5.711,13.771-5.711c5.199,0,10.088,2.026,13.766,5.705c3.679,3.679,5.705,8.571,5.705,13.775
			c0,5.197-2.026,10.086-5.705,13.765C380.268,461.594,375.379,463.62,370.18,463.62z M370.18,434.67
			c-2.527,0-4.904,0.985-6.693,2.775c-1.788,1.795-2.776,4.178-2.776,6.705c0,5.222,4.249,9.47,9.47,9.47
			c2.527,0,4.904-0.985,6.695-2.775c1.789-1.79,2.775-4.168,2.775-6.694c0-2.533-0.986-4.915-2.775-6.705
			C375.084,435.655,372.707,434.67,370.18,434.67z"/>
		<path d="M372.99,491c-1.279,0-2.559-0.488-3.535-1.464c-1.953-1.953-1.953-5.118,0-7.071l71.229-71.24
			c1.952-1.953,5.118-1.952,7.071-0.001c1.953,1.953,1.953,5.118,0,7.071l-71.23,71.24C375.55,490.512,374.27,491,372.99,491z"/>
		<path d="M413.92,491c-1.279,0-2.559-0.488-3.535-1.465c-1.953-1.952-1.953-5.118,0-7.07l45.279-45.28
			c1.953-1.953,5.123-1.959,7.076-0.005c1.953,1.952,1.958,5.113,0.006,7.065l-45.291,45.29C416.479,490.512,415.199,491,413.92,491
			z"/>
		<path d="M457.25,491H283.109c-7.672,0-14.541-3.966-18.377-10.609c-3.837-6.645-3.838-14.577-0.003-21.221l87.07-150.82
			c3.841-6.644,10.713-10.607,18.384-10.607c0.003,0,0.005,0,0.008,0c7.67,0.003,14.537,3.969,18.369,10.607l87.068,150.819
			c3.838,6.638,3.842,14.568,0.008,21.213C471.801,487.03,464.928,491,457.25,491z M370.184,307.742
			c-4.059,0-7.693,2.097-9.725,5.61L273.391,464.17c-2.027,3.513-2.027,7.707,0.002,11.22c2.027,3.513,5.66,5.61,9.717,5.61H457.25
			c4.061,0,7.696-2.1,9.725-5.616c2.027-3.512,2.025-7.702-0.004-11.211l-87.071-150.824c-2.025-3.509-5.656-5.604-9.712-5.606
			C370.187,307.742,370.186,307.742,370.184,307.742z"/>
		<path d="M366.219,215.78c-0.645,0-1.293-0.125-1.912-0.38c-1.868-0.774-3.086-2.597-3.086-4.62V141.13l-42.855,57.759
			c-1.284,1.731-3.535,2.445-5.584,1.768c-2.048-0.677-3.432-2.591-3.432-4.748v-55.612l-49.839,62.547
			c-1.325,1.662-3.554,2.304-5.561,1.604c-2.006-0.702-3.35-2.595-3.35-4.72v-59.985l-53.668,64.007
			c-1.351,1.611-3.564,2.204-5.541,1.486c-1.976-0.719-3.291-2.596-3.291-4.699v-59.795l-46.031,60.067
			c-1.303,1.7-3.543,2.383-5.574,1.694c-2.029-0.688-3.395-2.593-3.395-4.735v-59.919l-41.064,41.064
			c-1.43,1.43-3.581,1.857-5.449,1.084c-1.868-0.774-3.086-2.597-3.086-4.62V26c0-2.761,2.239-5,5-5h240
			c1.326,0,2.598,0.527,3.535,1.464l60,60c0.938,0.938,1.465,2.209,1.465,3.536v102.5c0,1.326-0.527,2.598-1.465,3.536
			l-22.279,22.28C368.799,215.272,367.52,215.78,366.219,215.78z M366.221,121c0.523,0,1.053,0.083,1.568,0.253
			c2.048,0.677,3.432,2.591,3.432,4.748v72.708l12.279-12.28V88.071L326.429,31H93.5v132.309l41.064-41.064
			c1.43-1.43,3.58-1.857,5.449-1.084c1.868,0.774,3.086,2.597,3.086,4.62v57.246l46.031-60.067c1.304-1.7,3.544-2.381,5.574-1.694
			c2.029,0.688,3.395,2.593,3.395,4.735v60.795l53.668-64.007c1.351-1.612,3.563-2.205,5.541-1.486
			c1.976,0.719,3.29,2.596,3.29,4.699v59.432l49.84-62.547c1.324-1.662,3.554-2.304,5.561-1.604c2.007,0.702,3.35,2.595,3.35,4.72
			v54.78l42.855-57.759C363.166,121.725,364.668,121,366.221,121z"/>
		<path d="M283.88,441H88.5c-2.761,0-5-2.238-5-5V210.73c0-1.326,0.527-2.598,1.464-3.536l24.6-24.6
			c1.43-1.43,3.58-1.858,5.449-1.083c1.868,0.773,3.086,2.597,3.086,4.619v70.11l46.029-60.139c1.303-1.701,3.542-2.383,5.575-1.697
			c2.03,0.688,3.396,2.593,3.396,4.736v58.065l53.608-66.474c1.331-1.65,3.558-2.281,5.556-1.576
			c1.999,0.706,3.336,2.595,3.336,4.715v63.818l49.814-63.592c1.315-1.679,3.551-2.337,5.566-1.643
			c2.017,0.696,3.369,2.594,3.369,4.727v58.674l42.854-57.831c1.285-1.734,3.536-2.447,5.584-1.771
			c2.049,0.676,3.434,2.59,3.434,4.748v58.061l38.744-38.737c1.43-1.43,3.582-1.856,5.449-1.083
			c1.867,0.774,3.086,2.597,3.086,4.619v94.39c0,2.762-2.238,5-5,5s-5-2.238-5-5v-82.321l-38.744,38.737
			c-1.432,1.43-3.582,1.857-5.449,1.083c-1.868-0.773-3.086-2.597-3.086-4.619v-54.984l-42.854,57.831
			c-1.285,1.735-3.536,2.446-5.584,1.771c-2.049-0.677-3.434-2.591-3.434-4.748v-59.329l-49.813,63.591
			c-1.315,1.679-3.548,2.34-5.567,1.644c-2.016-0.695-3.369-2.594-3.369-4.727v-64.145l-53.608,66.474
			c-1.33,1.65-3.557,2.282-5.556,1.576c-1.999-0.705-3.336-2.595-3.336-4.715v-57.471l-46.029,60.14
			c-1.303,1.701-3.543,2.384-5.575,1.696c-2.03-0.688-3.396-2.592-3.396-4.735v-72.799l-14.6,14.6V431h190.38c2.761,0,5,2.238,5,5
			S286.641,441,283.88,441z"/>
		<path d="M453.5,166c-19.299,0-35-15.701-35-35s15.701-35,35-35s35,15.701,35,35S472.799,166,453.5,166z M453.5,106
			c-13.785,0-25,11.215-25,25s11.215,25,25,25s25-11.215,25-25S467.285,106,453.5,106z"/>
		<path d="M43.5,366c-11.028,0-20-8.972-20-20s8.972-20,20-20s20,8.972,20,20S54.528,366,43.5,366z M43.5,336
			c-5.514,0-10,4.486-10,10s4.486,10,10,10s10-4.486,10-10S49.014,336,43.5,336z"/>
	</g>
</g>
<g id="Layer_1">
</g>
</svg>
